<svg width="562" height="150" viewBox="0 0 562 150" fill="none" xmlns="http://www.w3.org/2000/svg">
<mask id="mask0" mask-type="alpha" maskUnits="userSpaceOnUse" x="0" y="0" width="150" height="150">
<path fill-rule="evenodd" clip-rule="evenodd" d="M75 150C116.421 150 150 116.421 150 75C150 33.5786 116.421 0 75 0C33.5786 0 0 33.5786 0 75C0 116.421 33.5786 150 75 150Z" fill="black"/>
</mask>
<g mask="url(#mask0)">
<rect x="-15.4404" y="-3.97119" width="189.412" height="115.588" fill="#F64942"/>
<path d="M33.0409 122.54C23.4309 103.703 32.7008 80.8971 57.7638 74.7685C130.576 62.8756 119.658 40.3234 141.96 32.2843C183.453 17.3273 172.961 69.3864 164.615 83.9407C156.269 98.495 176.035 126.107 147.705 128.115C129.872 129.379 124.674 119.331 93.2433 132.305C77.0787 138.977 76.1334 137.501 59.3527 132.089L44.9843 124.83L33.0409 122.54Z" fill="#F4CE45"/>
<path d="M71.0098 -14.5009C51.654 -11.9166 -47.4107 8.92668 -54.4729 12.1544L-37.243 109.937C-26.9014 108.941 -7.70952 119.236 -7.70951 104.733C-7.70951 90.662 -4.85386 84.6587 4.85437 67.7944C19.1191 43.0149 50.695 43.428 61.6957 42.8902C87.722 41.6179 116.192 33.2876 130.739 12.1617C180.589 -60.235 133.287 -31.6724 71.0098 -14.5009Z" fill="#5B95BF"/>
<path d="M50.1082 99.0597C29.927 99.1196 8.65071 105.342 -10.7788 112.64L-3.15169 195.258C49.7314 188.64 144.782 172.821 150.694 162.797C157.547 151.175 147.893 143.423 167.806 132.834C183.736 124.363 201.375 90.8689 163.809 90.4919C143.006 90.6623 137.682 94.9734 121.456 101.061C94.714 111.095 65.5709 99.0138 50.1082 99.0597Z" fill="#EF90A4"/>
<path fill-rule="evenodd" clip-rule="evenodd" d="M75.6004 24.2637C78.1716 24.2637 80.377 25.8131 81.3448 28.0278C81.4416 28.2488 81.6565 28.37 81.8721 28.37C82.0261 28.37 82.1807 28.3075 82.292 28.1749C83.4709 26.7665 85.2305 25.9236 87.0983 25.9236C87.6347 25.9236 88.1804 25.9937 88.723 26.1385C91.2111 26.8054 92.9417 28.8783 93.2998 31.2737C93.3425 31.5602 93.5978 31.7462 93.8622 31.7462C93.9697 31.7462 94.0794 31.715 94.177 31.6471C95.237 30.9041 96.502 30.507 97.7891 30.507C98.8506 30.507 99.9266 30.7775 100.913 31.3469C103.144 32.6348 104.279 35.0851 104.005 37.4911C103.966 37.831 104.25 38.1122 104.568 38.1122C104.63 38.1122 104.693 38.1016 104.756 38.0787C105.451 37.8257 106.182 37.6984 106.912 37.6984C108.515 37.6984 110.117 38.3089 111.34 39.5328C113.161 41.3543 113.624 44.0149 112.737 46.2677C112.593 46.6328 112.878 47.0321 113.26 47.0321C113.277 47.0321 113.293 47.0314 113.309 47.0298C113.493 47.0138 113.676 47.0054 113.859 47.0054C116.026 47.0054 118.132 48.1265 119.293 50.1385C120.581 52.3693 120.339 55.0588 118.899 57.0053C118.656 57.3337 118.853 57.8192 119.255 57.8901C121.583 58.2994 123.578 60.008 124.231 62.4415C124.898 64.9298 123.968 67.4654 122.073 68.9729C121.753 69.2267 121.817 69.7465 122.188 69.9195C124.33 70.9171 125.816 73.0846 125.816 75.6034C125.816 78.1755 124.267 80.3804 122.053 81.3483C121.673 81.5144 121.588 82.0296 121.905 82.2956C123.718 83.8137 124.593 86.2929 123.941 88.7271C123.274 91.2155 121.202 92.9463 118.806 93.3045C118.403 93.3647 118.199 93.8471 118.433 94.1817C119.789 96.1167 119.993 98.7369 118.733 100.919C117.572 102.93 115.466 104.051 113.3 104.051C113.064 104.051 112.826 104.037 112.59 104.011C112.569 104.008 112.548 104.007 112.528 104.007C112.152 104.007 111.869 104.397 112.002 104.761C112.811 106.982 112.33 109.565 110.548 111.346C109.325 112.57 107.723 113.181 106.121 113.181C105.337 113.181 104.554 113.034 103.814 112.743C103.748 112.717 103.681 112.705 103.616 112.705C103.303 112.705 103.022 112.979 103.052 113.316C103.259 115.67 102.125 118.041 99.9434 119.301C98.9573 119.87 97.8813 120.14 96.8198 120.14C95.4801 120.14 94.1632 119.71 93.0773 118.906C92.9782 118.833 92.8655 118.8 92.7542 118.8C92.4951 118.8 92.2421 118.981 92.1926 119.262C91.7834 121.59 90.0748 123.587 87.6416 124.238C87.0983 124.384 86.5534 124.453 86.0169 124.453C84.0958 124.453 82.2897 123.562 81.1108 122.08C81.0003 121.941 80.8395 121.875 80.6787 121.875C80.4699 121.875 80.2619 121.986 80.1651 122.195C79.1668 124.337 76.9996 125.824 74.481 125.824C71.9091 125.824 69.7044 124.275 68.7366 122.06C68.6399 121.839 68.425 121.718 68.2093 121.718C68.0554 121.718 67.9007 121.78 67.7894 121.912C66.6105 123.321 64.8509 124.164 62.9832 124.164C62.4467 124.164 61.901 124.094 61.3585 123.949C58.8704 123.282 57.1397 121.209 56.7816 118.814C56.7389 118.527 56.4836 118.341 56.2192 118.341C56.1117 118.341 56.002 118.372 55.9045 118.441C54.8444 119.184 53.5794 119.581 52.2923 119.581C51.2308 119.581 50.1548 119.31 49.1679 118.74C46.9374 117.452 45.8027 115.002 46.0763 112.596C46.1152 112.256 45.8317 111.976 45.5131 111.976C45.4514 111.976 45.3882 111.986 45.3257 112.009C44.6307 112.262 43.8999 112.389 43.1698 112.389C41.5665 112.389 39.9646 111.778 38.7415 110.555C36.9202 108.733 36.4577 106.072 37.3447 103.819C37.4887 103.455 37.2037 103.055 36.8212 103.055C36.8044 103.055 36.7884 103.056 36.7724 103.057C36.5888 103.073 36.4059 103.082 36.2222 103.082C34.0557 103.082 31.9494 101.961 30.788 99.9487C29.5002 97.7179 29.7425 95.0284 31.1828 93.0819C31.4251 92.7534 31.2285 92.268 30.8261 92.1971C28.4988 91.7878 26.503 90.0792 25.8507 87.6457C25.1839 85.1574 26.1136 82.6218 28.0088 81.1151C28.3281 80.8605 28.2641 80.3407 27.8938 80.1685C25.7516 79.1709 24.2656 77.0034 24.2656 74.4838C24.2656 71.9124 25.8141 69.7068 28.0294 68.7389C28.4081 68.5728 28.4935 68.0576 28.1765 67.7924C26.3636 66.2742 25.488 63.7943 26.1403 61.36C26.8071 58.8717 28.8798 57.1409 31.275 56.7827C31.6789 56.7225 31.8823 56.2401 31.6484 55.9055C30.2919 53.9705 30.0885 51.3503 31.3481 49.1691C32.5095 47.1571 34.615 46.0368 36.7816 46.0368C37.0178 46.0368 37.2548 46.0497 37.4918 46.0772C37.5124 46.0795 37.5337 46.0802 37.5543 46.0802C37.9292 46.0802 38.2119 45.69 38.0793 45.3265C37.27 43.1057 37.7516 40.5221 39.5326 38.741C40.7564 37.517 42.3582 36.9073 43.9608 36.9073C44.7442 36.9073 45.5276 37.0529 46.2676 37.3448C46.3331 37.3707 46.4002 37.3821 46.4657 37.3821C46.7781 37.3821 47.0593 37.1077 47.0296 36.7716C46.8223 34.4174 47.9563 32.0465 50.138 30.7867C51.1241 30.2174 52.2001 29.9468 53.2617 29.9468C54.6014 29.9468 55.9189 30.3774 57.0041 31.1815C57.1032 31.2539 57.216 31.2874 57.3272 31.2874C57.5863 31.2874 57.8393 31.1068 57.8888 30.8248C58.2981 28.4973 60.0066 26.5013 62.4398 25.8489C62.9832 25.7033 63.528 25.634 64.0645 25.634C65.9856 25.634 67.7917 26.5257 68.9706 28.0072C69.0811 28.1467 69.2419 28.213 69.4027 28.213C69.6115 28.213 69.8195 28.101 69.9171 27.8921C70.9146 25.7498 73.0819 24.2637 75.6004 24.2637" fill="white"/>
<path fill-rule="evenodd" clip-rule="evenodd" d="M98.3439 99.6158C92.6943 99.6158 93.1375 91.6396 98.3439 91.6396C103.55 91.6396 103.994 99.6158 98.3439 99.6158M51.658 99.6158C46.0083 99.6158 46.4516 91.6396 51.658 91.6396C56.8644 91.6396 57.3077 99.6158 51.658 99.6158M115.413 70.148H113.499C110.067 70.148 107.119 68.0963 105.8 65.1558C104.48 68.0963 101.532 70.148 98.1004 70.148C94.6679 70.148 91.7207 68.0963 90.4013 65.1558C89.0819 68.0963 86.1339 70.148 82.7014 70.148C79.2697 70.148 76.3217 68.0963 75.0023 65.1558C73.6829 68.0963 70.7349 70.148 67.3032 70.148C63.8707 70.148 60.9234 68.0963 59.6033 65.1558C58.2839 68.0963 55.3366 70.148 51.9041 70.148C48.4717 70.148 45.5244 68.0963 44.205 65.1558C42.8856 68.0963 39.9376 70.148 36.5051 70.148H34.6129C31.742 73.2368 33.5631 75.8463 40.6527 75.8463V91.7081C40.6527 106.615 57.8181 114.069 74.9836 114.069C92.149 114.069 109.314 106.615 109.314 91.7081V75.8463C116.41 75.8463 118.262 73.2368 115.413 70.148" fill="black"/>
<path fill-rule="evenodd" clip-rule="evenodd" d="M75.5486 19.1187C73.0348 19.1187 70.629 19.9064 68.6312 21.2917C67.2436 20.751 65.7505 20.465 64.2133 20.465C63.1537 20.465 62.0949 20.605 61.0661 20.8806C58.6347 21.532 56.5119 22.9188 54.9394 24.7781C54.4946 24.7279 54.0468 24.7024 53.5983 24.7024C51.4755 24.7024 49.3781 25.2655 47.5338 26.3303C45.3548 27.5883 43.664 29.476 42.6262 31.6775C40.0788 32.0609 37.7283 33.2417 35.8728 35.0972C34.0907 36.8786 32.9457 39.143 32.5144 41.5414C30.1827 42.568 28.1871 44.3157 26.8782 46.5838C25.6195 48.7635 25.0991 51.2443 25.302 53.6704C23.3222 55.2556 21.8471 57.4533 21.1627 60.006C20.5112 62.4381 20.6505 64.969 21.4742 67.2603C19.9728 69.3038 19.1162 71.8093 19.1162 74.451C19.1162 76.9685 19.9054 79.3766 21.2945 81.3766C20.3727 83.7391 20.1937 86.3801 20.8774 88.9335C21.5296 91.3648 22.9156 93.4862 24.7741 95.0587C24.4956 97.5791 25.0062 100.177 26.3279 102.466C27.5829 104.64 29.4691 106.337 31.6773 107.377C32.0614 109.883 33.2265 112.259 35.0948 114.128C36.8747 115.907 39.1091 117.066 41.5374 117.496C42.5573 119.813 44.296 121.802 46.5806 123.121C48.4256 124.187 50.523 124.75 52.6458 124.75C52.991 124.75 53.334 124.735 53.6747 124.707C55.2591 126.682 57.4546 128.154 60.0035 128.837C61.0324 129.112 62.0912 129.252 63.1507 129.252C64.5734 129.252 65.9647 129.005 67.2699 128.534C69.3111 130.03 71.8121 130.883 74.4486 130.883C76.9623 130.883 79.3682 130.096 81.366 128.71C82.7535 129.252 84.2473 129.537 85.7839 129.537C86.8434 129.537 87.9022 129.398 88.9311 129.121C91.3624 128.47 93.4852 127.083 95.057 125.224C95.5025 125.274 95.9503 125.3 96.3988 125.3C98.5216 125.3 100.619 124.736 102.463 123.672C104.643 122.414 106.333 120.526 107.371 118.325C109.919 117.941 112.269 116.76 114.124 114.905C115.906 113.123 117.051 110.859 117.483 108.461C119.814 107.435 121.81 105.687 123.119 103.419C124.378 101.239 124.898 98.7585 124.695 96.3324C126.675 94.7472 128.15 92.5494 128.834 89.996C129.486 87.5639 129.347 85.033 128.523 82.7424C130.024 80.6982 130.881 78.1935 130.881 75.551C130.881 73.0343 130.091 70.6254 128.703 68.6261C129.624 66.2637 129.803 63.6219 129.119 61.0685C128.468 58.6372 127.082 56.5158 125.223 54.9433C125.502 52.4229 124.991 49.8253 123.669 47.5362C122.414 45.3617 120.528 43.6657 118.32 42.6249C117.936 40.1194 116.771 37.7435 114.902 35.8752C113.122 34.0953 110.888 32.9362 108.46 32.5064C107.441 30.1896 105.702 28.2001 103.417 26.8807C101.572 25.8159 99.4749 25.2528 97.352 25.2528C97.0068 25.2528 96.6631 25.267 96.3224 25.2955C94.738 23.3209 92.5425 21.848 89.9936 21.1651C88.9648 20.8896 87.906 20.7495 86.8472 20.7495C85.4237 20.7495 84.0324 20.9974 82.7273 21.4684C80.686 19.9723 78.1851 19.1187 75.5486 19.1187M75.5504 25.1084C78.0769 25.1084 80.2439 26.6307 81.1948 28.8068C81.2899 29.0239 81.5011 29.143 81.713 29.143C81.8643 29.143 82.0163 29.0816 82.1256 28.9513C83.284 27.5675 85.013 26.7393 86.8483 26.7393C87.3754 26.7393 87.9116 26.8082 88.4447 26.9505C90.8895 27.6057 92.59 29.6424 92.942 31.9959C92.9839 32.2774 93.2347 32.4601 93.4946 32.4601C93.6002 32.4601 93.708 32.4294 93.8038 32.3628C94.8454 31.6327 96.0884 31.2426 97.3531 31.2426C98.3962 31.2426 99.4535 31.5084 100.423 32.0678C102.615 33.3332 103.731 35.7406 103.461 38.1046C103.423 38.4385 103.701 38.7148 104.014 38.7148C104.075 38.7148 104.137 38.7044 104.199 38.6819C104.882 38.4333 105.6 38.3082 106.317 38.3082C107.892 38.3082 109.466 38.908 110.668 40.1106C112.458 41.9002 112.912 44.5143 112.041 46.7277C111.899 47.0864 112.179 47.4788 112.555 47.4788C112.572 47.4788 112.587 47.478 112.603 47.4765C112.784 47.4608 112.963 47.4525 113.144 47.4525C115.273 47.4525 117.342 48.554 118.483 50.5309C119.749 52.7226 119.511 55.3651 118.096 57.2775C117.857 57.6002 118.051 58.0772 118.446 58.1469C120.733 58.549 122.694 60.2278 123.335 62.6187C123.99 65.0635 123.077 67.5548 121.214 69.0359C120.901 69.2852 120.963 69.7959 121.327 69.9659C123.432 70.9461 124.892 73.0756 124.892 75.5504C124.892 78.0776 123.371 80.2439 121.195 81.1948C120.822 81.3581 120.738 81.8643 121.05 82.1256C122.831 83.6172 123.691 86.053 123.05 88.4447C122.395 90.8895 120.358 92.59 118.005 92.942C117.608 93.0011 117.408 93.4751 117.638 93.8038C118.971 95.705 119.171 98.2794 117.933 100.423C116.792 102.399 114.723 103.501 112.594 103.501C112.362 103.501 112.128 103.487 111.896 103.461C111.876 103.459 111.855 103.457 111.836 103.457C111.466 103.457 111.189 103.841 111.319 104.199C112.114 106.38 111.641 108.918 109.89 110.668C108.688 111.871 107.114 112.471 105.54 112.471C104.77 112.471 104 112.327 103.273 112.041C103.209 112.015 103.143 112.003 103.078 112.003C102.771 112.003 102.495 112.273 102.524 112.604C102.728 114.916 101.614 117.246 99.47 118.483C98.501 119.043 97.4437 119.309 96.4007 119.309C95.0843 119.309 93.7904 118.886 92.7233 118.096C92.626 118.024 92.5152 117.991 92.4058 117.991C92.1512 117.991 91.9026 118.17 91.854 118.446C91.4519 120.733 89.7731 122.695 87.3822 123.335C86.8483 123.478 86.3129 123.546 85.7857 123.546C83.898 123.546 82.1234 122.67 80.965 121.214C80.8564 121.078 80.6984 121.013 80.5404 121.013C80.3352 121.013 80.1308 121.122 80.0357 121.327C79.0548 123.432 76.9252 124.892 74.4504 124.892C71.9232 124.892 69.757 123.371 68.806 121.195C68.7109 120.978 68.4997 120.859 68.2878 120.859C68.1366 120.859 67.9846 120.919 67.8752 121.05C66.7169 122.433 64.9879 123.262 63.1526 123.262C62.6254 123.262 62.0893 123.193 61.5561 123.05C59.1113 122.395 57.4108 120.358 57.0589 118.006C57.0169 117.723 56.7661 117.541 56.5063 117.541C56.4007 117.541 56.2928 117.571 56.197 117.639C55.1554 118.369 53.9124 118.759 52.6477 118.759C51.6046 118.759 50.5473 118.493 49.5776 117.933C47.3859 116.668 46.2709 114.26 46.5398 111.896C46.578 111.562 46.2994 111.287 45.9864 111.287C45.9258 111.287 45.8636 111.296 45.8022 111.319C45.1193 111.568 44.4012 111.693 43.6839 111.693C42.1084 111.693 40.5344 111.093 39.3326 109.891C37.543 108.101 37.0884 105.487 37.96 103.273C38.1016 102.915 37.8215 102.522 37.4456 102.522C37.4292 102.522 37.4134 102.523 37.3977 102.524C37.2172 102.54 37.0375 102.548 36.8571 102.548C34.7282 102.548 32.6586 101.447 31.5174 99.47C30.2519 97.2783 30.49 94.6357 31.9053 92.7233C32.1434 92.4006 31.9502 91.9236 31.5548 91.854C29.268 91.4519 27.3069 89.7731 26.6659 87.3822C26.0107 84.9373 26.9243 82.4461 28.7865 80.9657C29.1003 80.7156 29.0374 80.2049 28.6735 80.0357C26.5686 79.0555 25.1084 76.9259 25.1084 74.4504C25.1084 71.924 26.63 69.757 28.8068 68.806C29.1789 68.6428 29.2628 68.1366 28.9513 67.876C27.1699 66.3844 26.3095 63.9478 26.9505 61.5561C27.6057 59.1113 29.6424 57.4108 31.9959 57.0589C32.3927 56.9997 32.5927 56.5257 32.3628 56.197C31.0299 54.2958 30.83 51.7214 32.0678 49.5784C33.2089 47.6016 35.2779 46.5008 37.4067 46.5008C37.6388 46.5008 37.8717 46.5136 38.1046 46.5405C38.1248 46.5428 38.1457 46.5435 38.166 46.5435C38.5344 46.5435 38.8122 46.1601 38.6819 45.8029C37.8867 43.621 38.3599 41.0825 40.1098 39.3326C41.3124 38.13 42.8864 37.531 44.4611 37.531C45.2309 37.531 46.0006 37.674 46.7277 37.9608C46.7921 37.9863 46.858 37.9975 46.9224 37.9975C47.2294 37.9975 47.5057 37.7279 47.4765 37.3977C47.2728 35.0847 48.387 32.7552 50.5309 31.5174C51.4998 30.958 52.5571 30.6922 53.6002 30.6922C54.9166 30.6922 56.2112 31.1153 57.2775 31.9053C57.3749 31.9764 57.4857 32.0094 57.595 32.0094C57.8496 32.0094 58.0982 31.8319 58.1469 31.5548C58.549 29.268 60.2278 27.3069 62.6187 26.6659C63.1526 26.5229 63.688 26.4548 64.2151 26.4548C66.1028 26.4548 67.8775 27.3309 69.0359 28.7865C69.1444 28.9236 69.3024 28.9887 69.4604 28.9887C69.6656 28.9887 69.87 28.8786 69.9659 28.6735C70.9461 26.5686 73.0756 25.1084 75.5504 25.1084" fill="black"/>
</g>
<path fill-rule="evenodd" clip-rule="evenodd" d="M211.227 105.914C212.055 106.833 212.468 108.014 212.468 109.458C212.468 110.902 211.922 112.083 210.83 113.002C209.739 113.92 208.332 114.38 206.612 114.38H204.825C201.583 114.38 198.622 113.543 195.942 111.87C193.262 110.196 191.161 107.916 189.639 105.028C188.117 102.141 187.356 98.8922 187.356 95.2828V70.9688H182.79C181.4 70.9688 180.276 70.575 179.415 69.7875C178.555 69 178.125 68.0156 178.125 66.8344C178.125 65.5219 178.555 64.4719 179.415 63.6844C180.276 62.8969 181.4 62.5031 182.79 62.5031H187.356V48.3281C187.356 46.8844 187.819 45.7031 188.746 44.7844C189.672 43.8656 190.863 43.4063 192.319 43.4063C193.775 43.4063 194.966 43.8656 195.892 44.7844C196.819 45.7031 197.282 46.8844 197.282 48.3281V62.5031H205.719C207.108 62.5031 208.233 62.8969 209.093 63.6844C209.954 64.4719 210.384 65.5219 210.384 66.8344C210.384 68.0156 209.954 69 209.093 69.7875C208.233 70.575 207.108 70.9688 205.719 70.9688H197.282V95.2828C197.282 97.9078 198.01 100.106 199.465 101.878C200.921 103.65 202.708 104.536 204.825 104.536H208.2C209.391 104.536 210.4 104.995 211.227 105.914ZM259.864 63.7336C264 66.1289 267.275 69.4101 269.69 73.5773C272.106 77.7446 273.313 82.3875 273.313 87.5063V109.458C273.313 110.902 272.834 112.099 271.874 113.051C270.915 114.002 269.707 114.478 268.251 114.478C266.795 114.478 265.588 114.002 264.628 113.051C263.669 112.099 263.189 110.902 263.189 109.458V105.816C260.873 108.638 258.061 110.836 254.752 112.411C251.443 113.986 247.87 114.773 244.032 114.773C239.268 114.773 234.95 113.592 231.079 111.23C227.208 108.867 224.164 105.602 221.947 101.435C219.731 97.268 218.622 92.625 218.622 87.5063C218.622 82.3875 219.813 77.7446 222.195 73.5773C224.578 69.4101 227.87 66.1289 232.072 63.7336C236.274 61.3383 240.922 60.1406 246.017 60.1406C251.113 60.1406 255.728 61.3383 259.864 63.7336ZM255 103.502C257.68 101.895 259.781 99.6961 261.303 96.907C262.825 94.118 263.586 90.9844 263.586 87.5063C263.586 84.0281 262.825 80.8781 261.303 78.0563C259.781 75.2344 257.68 73.0195 255 71.4117C252.32 69.8039 249.326 69 246.017 69C242.709 69 239.714 69.8039 237.035 71.4117C234.355 73.0195 232.237 75.2344 230.682 78.0563C229.127 80.8781 228.349 84.0281 228.349 87.5063C228.349 90.9844 229.127 94.118 230.682 96.907C232.237 99.6961 234.355 101.895 237.035 103.502C239.714 105.11 242.709 105.914 246.017 105.914C249.326 105.914 252.32 105.11 255 103.502ZM291.974 112.706C288.003 111.328 284.893 109.523 282.643 107.292C281.783 106.439 281.353 105.422 281.353 104.241C281.353 102.666 282.015 101.386 283.338 100.402C284.596 99.4828 285.754 99.0234 286.812 99.0234C288.136 99.0234 289.393 99.6141 290.584 100.795C291.841 102.173 293.727 103.371 296.242 104.388C298.756 105.405 301.436 105.914 304.282 105.914C308.054 105.914 310.982 105.291 313.066 104.044C315.15 102.797 316.193 101.123 316.193 99.0234C316.193 96.9891 315.167 95.2992 313.116 93.9539C311.064 92.6086 307.59 91.4766 302.694 90.5578C289.989 88.1297 283.636 82.9454 283.636 75.0047C283.636 71.7891 284.596 69.0656 286.515 66.8344C288.434 64.6031 290.948 62.9297 294.058 61.8141C297.168 60.6984 300.477 60.1406 303.984 60.1406C308.285 60.1406 312.14 60.8297 315.547 62.2078C318.955 63.5859 321.652 65.4891 323.637 67.9172C324.497 68.9672 324.927 70.0172 324.927 71.0672C324.927 72.1828 324.365 73.2 323.24 74.1188C322.512 74.6438 321.586 74.9063 320.461 74.9063C318.74 74.9063 317.185 74.2828 315.796 73.0359C314.141 71.5266 312.388 70.4602 310.535 69.8367C308.682 69.2133 306.432 68.9016 303.785 68.9016C300.741 68.9016 298.244 69.4102 296.291 70.4273C294.339 71.4445 293.363 72.8719 293.363 74.7094C293.363 76.0219 293.694 77.1211 294.356 78.007C295.018 78.893 296.275 79.7133 298.128 80.468C299.981 81.2227 302.66 81.9609 306.168 82.6828C313.38 84.1266 318.492 86.1281 321.503 88.6875C324.514 91.2469 326.019 94.5609 326.019 98.6297C326.019 101.648 325.192 104.388 323.538 106.849C321.883 109.31 319.452 111.246 316.242 112.657C313.033 114.068 309.178 114.773 304.679 114.773C300.179 114.773 295.944 114.084 291.974 112.706ZM377.435 110.245C377.435 111.689 376.839 112.903 375.648 113.888C374.656 114.675 373.597 115.069 372.472 115.069C371.016 115.069 369.825 114.478 368.899 113.297L350.04 90.1641L345.077 94.4953V109.556C345.077 111 344.63 112.165 343.737 113.051C342.843 113.937 341.669 114.38 340.213 114.38C338.757 114.38 337.583 113.937 336.689 113.051C335.796 112.165 335.349 111 335.349 109.556V42.3234C335.349 40.8797 335.796 39.7148 336.689 38.8289C337.583 37.943 338.757 37.5 340.213 37.5C341.669 37.5 342.843 37.943 343.737 38.8289C344.63 39.7148 345.077 40.8797 345.077 42.3234V82.3875L369.196 61.0266C370.057 60.1734 371.082 59.7469 372.273 59.7469C373.663 59.7469 374.788 60.2719 375.648 61.3219C376.508 62.175 376.938 63.1922 376.938 64.3734C376.938 65.7516 376.409 66.8672 375.35 67.7203L357.087 83.8641L376.343 107.292C377.071 108.08 377.435 109.064 377.435 110.245ZM421.853 63.7336C425.988 66.1289 429.264 69.4101 431.679 73.5773C434.094 77.7446 435.302 82.3875 435.302 87.5063V109.458C435.302 110.902 434.822 112.099 433.863 113.051C432.903 114.002 431.696 114.478 430.24 114.478C428.784 114.478 427.576 114.002 426.617 113.051C425.657 112.099 425.178 110.902 425.178 109.458V105.816C422.862 108.638 420.049 110.836 416.741 112.411C413.432 113.986 409.859 114.773 406.021 114.773C401.257 114.773 396.939 113.592 393.068 111.23C389.197 108.867 386.153 105.602 383.936 101.435C381.719 97.268 380.611 92.625 380.611 87.5063C380.611 82.3875 381.802 77.7446 384.184 73.5773C386.566 69.4101 389.858 66.1289 394.06 63.7336C398.262 61.3383 402.911 60.1406 408.006 60.1406C413.101 60.1406 417.717 61.3383 421.853 63.7336ZM416.989 103.502C419.669 101.895 421.77 99.6961 423.292 96.907C424.814 94.118 425.575 90.9844 425.575 87.5063C425.575 84.0281 424.814 80.8781 423.292 78.0563C421.77 75.2344 419.669 73.0195 416.989 71.4117C414.309 69.8039 411.315 69 408.006 69C404.698 69 401.703 69.8039 399.023 71.4117C396.343 73.0195 394.226 75.2344 392.671 78.0563C391.116 80.8781 390.338 84.0281 390.338 87.5063C390.338 90.9844 391.116 94.118 392.671 96.907C394.226 99.6961 396.343 101.895 399.023 103.502C401.703 105.11 404.698 105.914 408.006 105.914C411.315 105.914 414.309 105.11 416.989 103.502ZM497.437 38.8781C498.364 39.7969 498.827 41.0109 498.827 42.5203V87.4078C498.827 92.5266 497.619 97.1695 495.204 101.337C492.789 105.504 489.513 108.785 485.378 111.18C481.242 113.576 476.626 114.773 471.531 114.773C466.436 114.773 461.787 113.576 457.585 111.18C453.383 108.785 450.091 105.504 447.709 101.337C445.327 97.1695 444.136 92.5266 444.136 87.4078C444.136 82.289 445.244 77.6461 447.461 73.4789C449.678 69.3117 452.722 66.0469 456.593 63.6844C460.464 61.3219 464.782 60.1406 469.546 60.1406C473.384 60.1406 476.957 60.9281 480.266 62.5031C483.574 64.0781 486.387 66.2766 488.703 69.0984V42.5203C488.703 41.0109 489.183 39.7969 490.142 38.8781C491.102 37.9594 492.309 37.5 493.765 37.5C495.287 37.5 496.511 37.9594 497.437 38.8781ZM480.514 103.502C483.194 101.895 485.295 99.6797 486.817 96.8578C488.339 94.0359 489.1 90.886 489.1 87.4078C489.1 83.9297 488.339 80.7961 486.817 78.007C485.295 75.218 483.194 73.0195 480.514 71.4117C477.834 69.8039 474.84 69 471.531 69C468.223 69 465.228 69.8039 462.548 71.4117C459.868 73.0195 457.751 75.218 456.196 78.007C454.641 80.7961 453.863 83.9297 453.863 87.4078C453.863 90.886 454.641 94.0359 456.196 96.8578C457.751 99.6797 459.868 101.895 462.548 103.502C465.228 105.11 468.223 105.914 471.531 105.914C474.84 105.914 477.834 105.11 480.514 103.502ZM560.665 89.7211C559.804 90.5414 558.713 90.9516 557.389 90.9516H519.671C520.399 95.5453 522.5 99.2531 525.974 102.075C529.448 104.897 533.7 106.308 538.729 106.308C540.714 106.308 542.782 105.947 544.932 105.225C547.083 104.503 548.853 103.617 550.243 102.567C551.169 101.845 552.261 101.484 553.518 101.484C554.775 101.484 555.768 101.813 556.496 102.469C557.687 103.453 558.283 104.569 558.283 105.816C558.283 106.997 557.753 107.981 556.694 108.769C554.444 110.541 551.649 111.984 548.307 113.1C544.965 114.216 541.773 114.773 538.729 114.773C533.303 114.773 528.439 113.609 524.138 111.279C519.837 108.949 516.478 105.717 514.063 101.583C511.648 97.4484 510.44 92.7563 510.44 87.5063C510.44 82.2562 511.582 77.5477 513.865 73.3805C516.148 69.2133 519.324 65.9649 523.393 63.6352C527.463 61.3055 532.078 60.1406 537.24 60.1406C542.335 60.1406 546.735 61.2562 550.441 63.4875C554.147 65.7188 556.992 68.8359 558.977 72.8391C560.962 76.8422 561.955 81.4359 561.955 86.6203C561.955 87.8672 561.525 88.9008 560.665 89.7211ZM525.478 72.5438C522.467 75.1688 520.565 78.6797 519.77 83.0766H552.823C552.228 78.6797 550.573 75.1688 547.86 72.5438C545.147 69.9187 541.607 68.6063 537.24 68.6063C532.409 68.6063 528.489 69.9187 525.478 72.5438Z" fill="white"/>
</svg>
